<svg xmlns="http://www.w3.org/2000/svg" xmlns:xlink="http://www.w3.org/1999/xlink" width="500" zoomAndPan="magnify" viewBox="0 0 375 374.999991" height="500" preserveAspectRatio="xMidYMid meet" version="1.0"><defs><clipPath id="1e9aeb7ae4"><path d="M 21 62 L 114 62 L 114 313 L 21 313 Z M 21 62 " clip-rule="nonzero"/></clipPath><clipPath id="d041ef6a84"><path d="M 115.898438 64.726562 L 35.4375 315.378906 L 19.011719 310.105469 L 99.472656 59.453125 Z M 115.898438 64.726562 " clip-rule="nonzero"/></clipPath><clipPath id="aa8dd93c7a"><path d="M 115.898438 64.726562 L 35.4375 315.378906 L 19.011719 310.105469 L 99.472656 59.453125 Z M 115.898438 64.726562 " clip-rule="nonzero"/></clipPath></defs><path fill="#4a3da5" d="M 292.191406 202.164062 C 292.191406 202.164062 350.058594 239.105469 338.589844 253.367188 C 327.117188 267.628906 271.015625 238.925781 271.015625 238.925781 C 271.015625 238.925781 291.476562 300.367188 273.644531 307.972656 C 255.808594 315.582031 231.164062 253.472656 231.164062 253.472656 C 231.164062 253.472656 205.707031 313.207031 188.792969 308.058594 C 171.878906 302.90625 191.285156 239.003906 191.285156 239.003906 C 191.285156 239.003906 132.726562 269.183594 123.738281 253.578125 C 114.75 237.976562 170.035156 202.28125 170.035156 202.28125 C 170.035156 202.28125 105.417969 187.191406 108.921875 170.03125 C 112.429688 152.875 177.359375 160.496094 177.359375 160.496094 C 177.359375 160.496094 136.710938 107.496094 151.277344 96.507812 C 165.839844 85.519531 209.832031 133.191406 209.832031 133.191406 C 209.832031 133.191406 212.324219 69.175781 230.980469 67.410156 C 249.640625 65.644531 252.257812 133.152344 252.257812 133.152344 C 252.257812 133.152344 294.589844 84.378906 310.742188 96.351562 C 326.898438 108.324219 284.785156 160.390625 284.785156 160.390625 C 284.785156 160.390625 350.234375 151.347656 353.242188 169.792969 C 356.246094 188.238281 292.191406 202.164062 292.191406 202.164062 Z M 292.191406 202.164062 " fill-opacity="1" fill-rule="nonzero"/><g clip-path="url(#1e9aeb7ae4)"><g clip-path="url(#d041ef6a84)"><g clip-path="url(#aa8dd93c7a)"><path fill="#4a3da5" d="M 38.300781 306.460938 L 112.964844 73.863281 C 114.433594 69.277344 111.917969 64.363281 107.324219 62.890625 C 102.730469 61.414062 97.820312 63.945312 96.347656 68.53125 L 21.683594 301.128906 C 20.214844 305.714844 22.730469 310.628906 27.324219 312.101562 C 31.917969 313.578125 36.828125 311.046875 38.300781 306.460938 Z M 38.300781 306.460938 " fill-opacity="1" fill-rule="nonzero"/></g></g></g></svg>