<svg xmlns="http://www.w3.org/2000/svg" xmlns:xlink="http://www.w3.org/1999/xlink" width="500" zoomAndPan="magnify" viewBox="0 0 375 374.999991" height="500" preserveAspectRatio="xMidYMid meet" version="1.0"><defs><clipPath id="7f8a853e91"><path d="M 2 48 L 106 48 L 106 327 L 2 327 Z M 2 48 " clip-rule="nonzero"/></clipPath><clipPath id="b52e3b3a77"><path d="M 107.941406 51.089844 L 18.542969 329.59375 L -0.0234375 323.632812 L 89.375 45.128906 Z M 107.941406 51.089844 " clip-rule="nonzero"/></clipPath><clipPath id="f19ffcbfee"><path d="M 107.941406 51.089844 L 18.542969 329.59375 L -0.0234375 323.632812 L 89.375 45.128906 Z M 107.941406 51.089844 " clip-rule="nonzero"/></clipPath></defs><path fill="#ffffff" d="M 303.824219 203.792969 C 303.824219 203.792969 368.121094 244.84375 355.375 260.691406 C 342.628906 276.535156 280.292969 244.640625 280.292969 244.640625 C 280.292969 244.640625 303.027344 312.910156 283.210938 321.363281 C 263.398438 329.8125 236.011719 260.808594 236.011719 260.808594 C 236.011719 260.808594 207.726562 327.179688 188.933594 321.453125 C 170.136719 315.730469 191.699219 244.726562 191.699219 244.726562 C 191.699219 244.726562 126.640625 278.257812 116.652344 260.921875 C 106.664062 243.589844 168.089844 203.925781 168.089844 203.925781 C 168.089844 203.925781 96.292969 187.160156 100.1875 168.09375 C 104.085938 149.027344 176.230469 157.496094 176.230469 157.496094 C 176.230469 157.496094 131.066406 98.609375 147.25 86.398438 C 163.429688 74.191406 212.3125 127.160156 212.3125 127.160156 C 212.3125 127.160156 215.078125 56.03125 235.808594 54.066406 C 256.542969 52.101562 259.453125 127.113281 259.453125 127.113281 C 259.453125 127.113281 306.484375 72.921875 324.433594 86.222656 C 342.382812 99.527344 295.59375 157.378906 295.59375 157.378906 C 295.59375 157.378906 368.316406 147.332031 371.65625 167.828125 C 374.992188 188.320312 303.824219 203.792969 303.824219 203.792969 Z M 303.824219 203.792969 " fill-opacity="1" fill-rule="nonzero"/><g clip-path="url(#7f8a853e91)"><g clip-path="url(#b52e3b3a77)"><g clip-path="url(#f19ffcbfee)"><path fill="#ffffff" d="M 21.710938 319.730469 L 104.695312 61.199219 C 106.332031 56.101562 103.535156 50.640625 98.425781 49 C 93.320312 47.363281 87.867188 50.171875 86.230469 55.269531 L 3.242188 313.800781 C 1.605469 318.898438 4.40625 324.359375 9.511719 325.996094 C 14.617188 327.636719 20.074219 324.824219 21.710938 319.730469 Z M 21.710938 319.730469 " fill-opacity="1" fill-rule="nonzero"/></g></g></g></svg>